<svg xmlns="http://www.w3.org/2000/svg" width="430" height="430" style="width:100%;height:100%;transform:translate3d(0,0,0);content-visibility:visible" viewBox="0 0 430 430"><defs><clipPath id="j"><path d="M0 0h430v430H0z"/></clipPath><clipPath id="q"><path d="M0 0h430v430H0z"/></clipPath><clipPath id="f"><path d="M0 0h430v430H0z"/></clipPath><clipPath id="n"><path d="M0 0h430v430H0z"/></clipPath><clipPath id="h"><path d="M0 0h430v430H0z"/></clipPath><clipPath id="k"><path d="M0 0h430v430H0z"/></clipPath><clipPath id="i"><path d="M0 0h430v430H0z"/></clipPath><filter id="r" width="300%" height="300%" x="-100%" y="-100%"><feGaussianBlur result="filter_result_0"/></filter><filter id="p" width="300%" height="300%" x="-100%" y="-100%"><feGaussianBlur result="filter_result_0" stdDeviation="52.5 52.5"/></filter><filter id="l" width="300%" height="300%" x="-100%" y="-100%"><feGaussianBlur result="filter_result_0"/></filter><mask id="s" mask-type="alpha"><use xmlns:ns1="http://www.w3.org/1999/xlink" ns1:href="#a"/></mask><mask id="o" mask-type="alpha"><use xmlns:ns2="http://www.w3.org/1999/xlink" ns2:href="#b"/></mask><mask id="m" mask-type="alpha"><use xmlns:ns3="http://www.w3.org/1999/xlink" ns3:href="#d"/></mask><g id="a" clip-path="url(#f)" style="display:none"><g style="display:none"><path fill-opacity="0" stroke-linecap="round" stroke-linejoin="round" class="primary"/><path fill-opacity="0" stroke-linecap="round" stroke-linejoin="round" class="secondary"/><path/></g><path fill-opacity="0" stroke-linecap="round" stroke-linejoin="round" class="secondary" style="display:none"/><path fill-opacity="0" stroke-linecap="round" stroke-linejoin="round" class="secondary" style="display:none"/></g><g id="b" clip-path="url(#h)" style="display:block"><g style="display:block"><path fill-opacity="0" stroke="#121331" stroke-linecap="round" stroke-linejoin="round" stroke-width="12" d="M289.281 275.498 265 129l55-81.25-85 20.563-80 90.562-23.284 117.292M295 310l85 30c0 11.707-21.374 22.239-55.44 29.554L292 345l-2.23 30.332C265.982 378.312 238.829 380 210 380c-93.888 0-170-17.909-170-40l85-30" class="primary"/><path fill-opacity="0" stroke="#08A88A" stroke-linecap="round" stroke-linejoin="round" stroke-width="12" d="M295 310c0 8.284-38.056 15-85 15s-85-6.716-85-15l6.774-34.122C144.73 281.241 174.877 285 210 285c36.102 0 66.947-3.971 79.269-9.574z" class="secondary"/><path fill="red" d="M295 310c0 8.284-38.056 15-85 15s-85-6.716-85-15l6.774-34.122C144.73 281.241 174.877 285 210 285c36.102 0 66.947-3.971 79.269-9.574z"/></g><path fill-opacity="0" stroke="#08A88A" stroke-linecap="round" stroke-linejoin="round" stroke-width="12" d="M35 0 12.391-12.391 0-35l-12.391 22.609L-35 0l22.609 12.391L0 35l12.391-22.609z" class="secondary" style="display:block" transform="translate(95 90)"/><path fill-opacity="0" stroke="#08A88A" stroke-linecap="round" stroke-linejoin="round" stroke-width="12" d="M0 0h-17.5m35 0H0m0 0v17.5m0-35V0" class="secondary" style="display:block" transform="translate(347.5 197.5)"/><path fill-opacity="0" stroke-linecap="round" stroke-linejoin="round" class="secondary" style="display:none"/></g><g id="d" clip-path="url(#i)" style="display:none"><g style="display:none"><path fill-opacity="0" stroke-linecap="round" stroke-linejoin="round" class="primary"/><path fill-opacity="0" stroke-linecap="round" stroke-linejoin="round" class="secondary"/><path/></g><path fill-opacity="0" stroke-linecap="round" stroke-linejoin="round" class="secondary" style="display:none"/><path fill-opacity="0" stroke-linecap="round" stroke-linejoin="round" class="secondary" style="display:none"/><path fill-opacity="0" stroke-linecap="round" stroke-linejoin="round" class="secondary" style="display:none"/></g></defs><g clip-path="url(#j)"><g clip-path="url(#k)" filter="url(#l)" mask="url(#m)" style="display:none"><g class="design"><path class="primary"/></g><g class="design"><path class="secondary"/></g></g><g clip-path="url(#n)" mask="url(#o)" style="display:block"><g filter="url(#p)" transform="rotate(-94 238.762 -16.565)scale(2.4)"><g class="design"><path fill="#4BE1EC" d="M0-250c137.975 0 250 112.025 250 250S137.975 250 0 250-250 137.975-250 0-137.975-250 0-250" class="primary"/></g><g class="design"><path fill="#CB5EEE" d="M113.242-295.384c97.478 0 176.5 79.022 176.5 176.5s-79.022 176.5-176.5 176.5c-43.948 0-74.396-34.057-105.29-60.631-37.631-32.369-71.21-62.338-71.21-115.869 0-97.478 79.022-176.5 176.5-176.5" class="secondary"/></g></g></g><g clip-path="url(#q)" filter="url(#r)" mask="url(#s)" style="display:none"><g class="design"><path class="primary"/></g><g class="design"><path class="secondary"/></g></g></g></svg>